HIERARCHY
ROOT pelvis
{
  OFFSET 0 100 0
  CHANNELS 6 Xposition Yposition Zposition Zrotation Xrotation Yrotation
  JOINT pelvis_right_femur
  {
    OFFSET -10.78128 -3.44521 -0.5502486
    CHANNELS 3 Zrotation Xrotation Yrotation
    JOINT right_femur_tibia
    {
      OFFSET -0.8047443 -44.0398 -0.1307829
      CHANNELS 3 Zrotation Xrotation Yrotation
      JOINT right_tibia_foot
      {
        OFFSET 3.006224 -47.83518 -5
        CHANNELS 3 Zrotation Xrotation Yrotation
        End Site
        {
          OFFSET 0 -5 15
        }
      }
    }
  }
  JOINT pelvis_left_femur
  {
    OFFSET 10.78128 -3.44521 -0.5502486
    CHANNELS 3 Zrotation Xrotation Yrotation
    JOINT left_femur_tibia
    {
      OFFSET 0.8047443 -44.0398 -0.1307829
      CHANNELS 3 Zrotation Xrotation Yrotation
      JOINT left_tibia_foot
      {
        OFFSET -4.370144 -48.10324 -4.275266
        CHANNELS 3 Zrotation Xrotation Yrotation
        End Site
        {
          OFFSET 0 -5 15
        }
      }
    }
  }
  JOINT pelvis_spine1
  {
    OFFSET 0 6.468898 -3.129235
    CHANNELS 3 Zrotation Xrotation Yrotation
    JOINT spine1
    {
      OFFSET 0 23.15396 4.99043
      CHANNELS 3 Zrotation Xrotation Yrotation
      JOINT spine2
      {
        OFFSET 0 20.79997 -5.064912
        CHANNELS 3 Zrotation Xrotation Yrotation
        JOINT neck
        {
          OFFSET 0 14.38658 9.616178
          CHANNELS 3 Zrotation Xrotation Yrotation
          End Site
          {
            OFFSET 0 20 0
          }
        }
      }
      JOINT right_manubrium
      {
        OFFSET -5.722621 16.35077 3.967754
        CHANNELS 3 Zrotation Xrotation Yrotation
        JOINT right_clavicle
        {
          OFFSET -13.16364 1.694482 -4.693211
          CHANNELS 3 Zrotation Xrotation Yrotation
          JOINT right_humerus
          {
            OFFSET -28.5034 -0.3100689 -2.792744
            CHANNELS 3 Zrotation Xrotation Yrotation
            JOINT right_radius
            {
              OFFSET -25.15693 0.02248979 -1.271978
              CHANNELS 3 Zrotation Xrotation Yrotation
              End Site
              {
                OFFSET -15 0 0
              }
            }
          }
        }
      }
      JOINT left_manubrium
      {
        OFFSET 5.722621 16.35077 3.967754
        CHANNELS 3 Zrotation Xrotation Yrotation
        JOINT left_clavicle
        {
          OFFSET 13.16364 1.694482 -4.693211
          CHANNELS 3 Zrotation Xrotation Yrotation
          JOINT left_humerus
          {
            OFFSET 29.39168 -1.063119 -2.237045
            CHANNELS 3 Zrotation Xrotation Yrotation
            JOINT left_radius
            {
              OFFSET 24.59957 -0.9528479 0.9047498
              CHANNELS 3 Zrotation Xrotation Yrotation
              End Site
              {
                OFFSET 15 -0 -0
              }
            }
          }
        }
      }
    }
  }
}
MOTION
Frames: 19
Frame Time: 0.0416666666667
0 103.5113 0 2.173855 -1.202811 0.2926796 1.267915 -10.07855 8.76053 -0 34.80913 -0 -5.274155 -17.99681 -2.448523 -8.029582 10.08908 -23.51602 -0 5.131655 -0 7.68516 -16.1511 26.58901 -4.325257 -5.051573 4.937669 1.997281 9.223659 -7.753701 0.8354949 22.82137 7.18295 3.253201 -23.1018 8.822494 6.375118 -19.77037 11.57596 86.31401 35.94735 -19.77859 -0 0 16.27757 -7.581685 8.243356 4.623604 5.475913 -19.4944 -1.687318 -94.77639 29.74067 22.9518 0 0 -15.97339 3.513696 17.87641 9.555482
0.3228623 103.4764 1.349092 2.014579 -1.082539 0.4921912 1.56587 -11.07965 8.672852 -0 34.77418 -0 -5.313068 -17.62463 -2.549678 -7.877397 10.21899 -23.40525 -0 5.163371 -0 7.547512 -16.43264 26.42439 -4.248012 -4.854638 4.86743 2.066612 9.210264 -7.78773 0.8487884 22.71642 7.218428 3.279907 -23.23914 8.867715 6.361819 -19.72548 11.58029 86.30467 35.9299 -19.8205 -0 0 16.19392 -7.627688 8.277818 4.650678 5.540294 -19.55308 -1.674582 -94.66702 29.68188 22.81171 0 0 -16.28664 3.609812 17.74224 9.508226
0.6746363 103.3611 2.833626 1.823612 -0.8159394 0.5432528 1.896324 -12.61198 8.333861 -0 32.92016 -0 -5.289677 -16.79443 -2.224795 -7.699344 10.38477 -23.15667 -0 5.233064 -0 7.290683 -16.9208 26.09461 -4.215583 -4.565692 4.862771 2.275317 9.174312 -7.797129 0.8632255 22.4693 7.264313 3.331731 -23.45817 8.895061 6.321756 -19.58973 11.5989 86.29741 35.91211 -19.97964 -0 0 15.93122 -7.687764 8.338227 4.660019 5.785921 -19.61189 -1.668065 -94.50186 29.57532 22.42202 0 0 -17.06378 3.805128 17.56604 9.361169
1.087433 103.1037 4.557602 1.646645 -0.3520425 0.4369976 2.172595 -14.47053 7.701957 -0 28.88619 -0 -5.191388 -15.41106 -1.449597 -7.612509 10.58908 -22.74177 -0 5.406734 -0 6.925459 -17.63576 25.57301 -4.28389 -4.209193 4.952229 2.587012 9.101392 -7.743788 0.9473286 22.06731 7.284205 3.438439 -23.74946 8.91928 6.227145 -19.30937 11.62846 86.3257 35.8912 -20.30386 -0 0 15.4603 -7.763451 8.427151 4.649474 6.187956 -19.7357 -1.68053 -94.24594 29.45415 21.74256 0 0 -18.32137 4.05554 17.35441 9.074693
1.567647 102.6214 6.572456 1.598792 0.2024786 0.3275707 2.248058 -16.347 6.859391 -0 22.97993 -0 -5.033202 -13.56568 -0.3788479 -7.696813 10.87727 -22.15498 -0 5.814188 -0 6.434321 -18.46287 24.82425 -4.422005 -3.915294 5.168353 2.891581 9.033759 -7.547163 1.076035 21.67099 7.271501 3.567433 -24.0311 8.938037 6.044455 -18.87581 11.64368 86.44178 35.85685 -20.77261 -0 0 14.83838 -7.861435 8.54404 4.639462 6.716875 -19.99936 -1.640044 -93.85307 29.35008 20.80701 0 0 -19.86205 4.289288 17.10464 8.711451
2.130273 101.9351 8.914897 1.686155 0.8205757 0.2558944 2.079618 -17.9549 5.866392 -0 15.9 -0 -4.885129 -11.53688 0.8199901 -7.918785 11.28778 -21.40444 -0 6.518291 -0 5.776617 -19.27452 23.78045 -4.590536 -3.732458 5.354579 3.084483 8.968029 -7.345883 1.179151 21.394 7.26582 3.688919 -24.21584 8.939487 5.795267 -18.47475 11.55536 86.6297 35.82291 -21.2448 -0 0 14.15565 -7.980295 8.69061 4.655928 7.248523 -20.32749 -1.532153 -93.36694 29.24566 19.81399 0 0 -21.32689 4.45755 16.8091 8.389453
2.730719 101.1218 11.68217 1.798483 1.483459 0.3410801 1.863784 -19.06232 4.837816 -0 8.836169 -0 -4.837885 -9.759839 1.986146 -8.173497 11.83913 -20.46588 -0 7.669229 -0 4.88488 -19.92577 22.44312 -4.675194 -3.654812 5.382668 3.175256 8.905413 -7.273597 1.186061 21.23972 7.307756 3.770826 -24.27957 8.907618 5.533554 -18.06553 11.37881 86.97755 35.79333 -21.7628 -0 0 13.3929 -8.102799 8.879558 4.699853 7.657443 -20.67689 -1.44853 -92.82471 29.13166 18.8718 0 0 -22.45224 4.542189 16.47136 8.208631
3.32035 100.2546 14.94441 1.785192 2.082019 0.7261667 1.815552 -19.38978 4.01099 -0 3.210443 -0 -4.988214 -8.536836 2.999645 -8.254804 12.43107 -19.40178 -0 9.560075 -0 3.671222 -20.17828 20.79643 -4.531236 -3.659994 5.245441 3.211918 8.843936 -7.353475 1.104772 21.16571 7.39452 3.804206 -24.24622 8.855538 5.332746 -17.58149 11.15993 87.52367 35.76511 -22.39045 -0 0 12.53102 -8.227839 9.12158 4.773343 7.791752 -21.01952 -1.436422 -92.29387 29.00948 18.10879 0 0 -23.01051 4.521602 16.09978 8.224542
3.898213 99.54851 18.8053 1.570648 2.648567 1.461539 1.960074 -18.62266 3.47876 -0 0.05044537 -0 -5.401916 -7.910309 3.656866 -8.031612 12.9302 -18.19785 -0 12.4931 -0 2.037237 -19.6148 18.82541 -4.080565 -3.812566 4.923908 3.239008 8.73824 -7.627018 0.9681087 21.11519 7.491972 3.798491 -24.17995 8.770497 5.218433 -17.12396 10.95369 88.12404 35.75208 -23.00939 -0 0 11.63063 -8.405981 9.412843 4.901446 7.569209 -21.18488 -1.550064 -91.93055 28.85543 17.71912 0 0 -22.89464 4.382276 15.6875 8.445469
4.454939 99.19123 23.23999 1.13251 3.19354 2.436257 2.229047 -16.55967 3.257114 0 -0.4888774 0 -6.077999 -7.683365 3.900866 -7.467158 13.06475 -16.96068 -0 16.80499 -0 -0.001657871 -17.75763 16.61239 -3.296922 -4.134375 4.485138 3.248479 8.618328 -8.01677 0.7652607 21.05161 7.577924 3.731012 -24.06156 8.62002 5.175388 -16.67624 10.80879 88.76374 35.75564 -23.58978 -0 0 10.71336 -8.652215 9.753935 5.086414 7.027367 -21.11018 -1.788943 -91.81692 28.66737 17.78532 0 0 -22.10074 4.11213 15.23052 8.856657
5.01638 99.30393 28.24255 0.5975976 3.385023 3.308558 2.634739 -13.38168 3.341249 -0 0.4743945 -0 -6.869856 -7.902092 3.916141 -6.846954 12.44908 -15.77502 -0 22.99697 -0 -2.23322 -14.29263 14.3506 -2.262373 -4.51398 4.163885 3.180454 8.613072 -8.300152 0.4883994 21.04464 7.626183 3.585652 -23.77713 8.366177 5.122645 -16.24034 10.7569 89.36663 35.77246 -24.02656 -0 0 9.907163 -9.003606 10.13628 5.360353 6.288564 -20.77027 -2.045844 -92.00022 28.43752 18.32307 0 0 -20.78615 3.721093 14.73679 9.401286
5.590566 99.92603 33.62868 0.2255326 2.966298 3.691368 3.035266 -9.243407 3.572708 -0 1.505587 -0 -7.562837 -8.842054 3.930207 -6.506938 10.71936 -14.65101 -0 31.40194 -0 -4.229433 -9.443496 12.35937 -1.250476 -4.754533 4.246513 2.99465 8.794972 -8.218749 0.1460154 21.20455 7.618256 3.374779 -23.27895 7.992429 5.110363 -15.90567 10.91857 89.81124 35.82592 -24.11315 -0 0 9.319877 -9.492109 10.55141 5.745977 5.492331 -20.3288 -2.264579 -92.3532 28.17578 19.12787 0 0 -19.28824 3.255064 14.24543 9.979164
6.165129 100.969 39.12763 0.2874382 1.936716 3.486217 3.081376 -3.917839 3.692615 -0 1.857223 -0 -8.018821 -10.51672 4.073367 -6.422015 7.383715 -13.55505 -0 41.36481 -0 -5.51137 -4.436441 11.04662 -0.6668245 -4.727628 4.89464 2.718714 9.189328 -7.714079 -0.1689716 21.57578 7.5075 3.164124 -22.61175 7.510749 5.237271 -15.72194 11.29935 89.98254 35.93341 -23.74899 -0 0 8.991858 -10.15818 10.99049 6.256173 4.725221 -19.92344 -2.432846 -92.73654 27.88984 20.03936 0 0 -17.84808 2.760051 13.77965 10.51833
6.783829 102.2521 44.52954 0.950102 0.372826 3.03337 2.474979 2.508325 3.607483 -0 1.236784 -0 -8.145336 -12.5767 4.407301 -6.262378 2.08382 -12.40038 -0 51.131 -0 -5.978878 -0.7606 10.65192 -0.7450767 -4.404354 5.999804 2.349614 9.725583 -6.948893 -0.360708 22.14195 7.256789 3.014475 -21.79883 6.951545 5.442121 -15.83314 11.75889 89.65186 36.10298 -22.79585 -0 0 9.043537 -11.09578 11.41703 6.927368 4.050975 -19.5854 -2.521382 -93.08276 27.55798 20.97587 0 0 -16.67491 2.296436 13.35285 10.9335
7.398878 103.6008 49.64098 2.003507 -1.321472 2.688924 1.342608 9.37769 3.459172 0 -0.347454 0 -7.887962 -14.58548 4.931627 -6.166129 -4.5559 -11.33426 -0 58.65211 -0 -5.891583 1.178431 10.85876 -1.357867 -3.953109 7.327729 1.917014 10.20453 -6.084638 -0.3981157 22.82477 6.872551 2.941754 -20.86401 6.35272 5.572023 -16.30388 12.14282 88.75441 36.2977 -21.18818 -0 0 9.590546 -12.37137 11.79102 7.778581 3.651348 -19.35909 -2.44561 -93.29621 27.16825 21.82664 0 0 -15.92537 1.935076 12.96836 11.17848
8.019561 104.9113 54.49696 3.293435 -2.914041 2.485732 -0.1322799 16.20905 3.393888 0 -2.516746 0 -7.274093 -16.31614 5.582027 -6.009486 -12.06161 -10.5196 -0 62.27144 -0 -5.210836 1.382398 11.5375 -2.319062 -3.482807 8.631209 1.378923 10.57234 -5.20212 -0.3504724 23.54926 6.438388 2.904596 -19.87851 5.778312 5.49859 -17.10159 12.37148 87.35338 36.44832 -18.97733 -0 0 10.68687 -13.99269 12.08143 8.803973 3.579917 -19.16656 -2.194339 -93.40232 26.74438 22.65014 0 0 -15.4845 1.647859 12.6181 11.31803
8.706873 105.9093 59.21507 4.474243 -4.074953 2.434727 -1.616585 22.46127 3.444808 0 -4.821888 0 -6.401704 -17.81146 6.260789 -5.503242 -19.36689 -9.574064 -0 61.27453 -0 -4.390583 0.8838062 12.80236 -3.279724 -3.183175 9.619217 0.7895655 10.7528 -4.449531 -0.2892476 24.15585 6.044084 2.855108 -18.95515 5.296642 5.133946 -18.13143 12.41615 85.54292 36.4747 -16.29443 -0 0 12.34893 -15.91791 12.26728 9.996333 3.771063 -18.87724 -1.887829 -93.50536 26.32115 23.52739 0 0 -15.12992 1.352208 12.28071 11.44363
9.474064 106.2543 63.88972 5.143167 -4.685171 2.451531 -2.624117 27.77684 3.515501 0 -6.763835 0 -5.387386 -19.25469 6.879777 -4.328733 -25.61435 -8.143381 -0 55.35022 -0 -3.8239 0.492717 14.71321 -3.883579 -3.130015 10.20254 0.2558274 10.69588 -3.860066 -0.2672223 24.49084 5.757412 2.764226 -18.14992 4.945401 4.519718 -19.27934 12.33864 83.48505 36.32161 -13.30576 -0 0 14.50378 -18.04475 12.34388 11.31207 4.11306 -18.46911 -1.609056 -93.6418 25.91811 24.42414 0 0 -14.71221 1.005211 11.9402 11.62618
10.36703 105.8841 68.58793 5.187003 -4.847232 2.390501 -2.951151 32.10866 3.445519 0 -7.984997 0 -4.313476 -20.74217 7.404236 -2.548943 -30.38471 -6.118576 -0 45.92889 -0 -3.479901 0.5575142 17.00751 -4.008944 -3.242977 10.42934 -0.1645641 10.4993 -3.435932 -0.2996028 24.50796 5.605905 2.63394 -17.51615 4.736514 3.82755 -20.4106 12.21551 81.42306 35.97314 -10.30027 -0 0 16.8678 -20.18917 12.31444 12.62286 4.410309 -17.96591 -1.423468 -93.82551 25.54967 25.31923 0 0 -14.07114 0.5899152 11.58552 11.92894
